<svg width="29" height="17" viewBox="0 0 29 17" fill="none" xmlns="http://www.w3.org/2000/svg">
<path d="M2.56 0C1.1392 0 0 1.23413 0 2.77333V12.48H2.56C2.56 13.5833 2.96457 14.6414 3.68471 15.4216C4.40485 16.2017 5.38157 16.64 6.4 16.64C7.41843 16.64 8.39515 16.2017 9.11529 15.4216C9.83543 14.6414 10.24 13.5833 10.24 12.48H17.92C17.92 13.5833 18.3246 14.6414 19.0447 15.4216C19.7649 16.2017 20.7416 16.64 21.76 16.64C22.7784 16.64 23.7552 16.2017 24.4753 15.4216C25.1954 14.6414 25.6 13.5833 25.6 12.48H28.16V2.77333C28.16 1.23413 27.0208 0 25.6 0H2.56ZM1.92 2.08H7.04V5.54667H1.92V2.08ZM8.96 2.08H14.08V5.54667H8.96V2.08ZM16 2.08H21.12V5.54667H16V2.08ZM23.04 2.08H26.24V9.70667L23.04 6.93333V2.08ZM6.4 10.4C6.90922 10.4 7.39758 10.6191 7.75765 11.0092C8.11772 11.3993 8.32 11.9283 8.32 12.48C8.32 13.0317 8.11772 13.5607 7.75765 13.9508C7.39758 14.3409 6.90922 14.56 6.4 14.56C5.89078 14.56 5.40242 14.3409 5.04236 13.9508C4.68229 13.5607 4.48 13.0317 4.48 12.48C4.48 11.9283 4.68229 11.3993 5.04236 11.0092C5.40242 10.6191 5.89078 10.4 6.4 10.4ZM21.76 10.4C22.2692 10.4 22.7576 10.6191 23.1176 11.0092C23.4777 11.3993 23.68 11.9283 23.68 12.48C23.68 13.0317 23.4777 13.5607 23.1176 13.9508C22.7576 14.3409 22.2692 14.56 21.76 14.56C21.2508 14.56 20.7624 14.3409 20.4024 13.9508C20.0423 13.5607 19.84 13.0317 19.84 12.48C19.84 11.9283 20.0423 11.3993 20.4024 11.0092C20.7624 10.6191 21.2508 10.4 21.76 10.4Z" fill="#FF0000"/>
</svg>
